<?xml version="1.0" encoding="UTF-8" standalone="no"?>
<svg
   xmlns:dc="http://purl.org/dc/elements/1.1/"
   xmlns:cc="http://creativecommons.org/ns#"
   xmlns:rdf="http://www.w3.org/1999/02/22-rdf-syntax-ns#"
   xmlns:svg="http://www.w3.org/2000/svg"
   xmlns="http://www.w3.org/2000/svg"
   xmlns:sodipodi="http://sodipodi.sourceforge.net/DTD/sodipodi-0.dtd"
   xmlns:inkscape="http://www.inkscape.org/namespaces/inkscape"
   version="1.1"
   id="Layer_1"
   x="0px"
   y="0px"
   width="12.5"
   height="7.7102189"
   viewBox="0 0 100 61.681751"
   enable-background="new 0 0 800 600"
   xml:space="preserve"
   inkscape:version="0.48.3.1 r9886"
   sodipodi:docname="bed-gray.svg"><metadata
   id="metadata9"><rdf:RDF><cc:Work
       rdf:about=""><dc:format>image/svg+xml</dc:format><dc:type
         rdf:resource="http://purl.org/dc/dcmitype/StillImage" /></cc:Work></rdf:RDF></metadata><defs
   id="defs7" /><sodipodi:namedview
   pagecolor="#ffffff"
   bordercolor="#666666"
   borderopacity="1"
   objecttolerance="10"
   gridtolerance="10"
   guidetolerance="10"
   inkscape:pageopacity="0"
   inkscape:pageshadow="2"
   inkscape:window-width="640"
   inkscape:window-height="480"
   id="namedview5"
   showgrid="false"
   fit-margin-top="0"
   fit-margin-left="0"
   fit-margin-right="0"
   fit-margin-bottom="0"
   inkscape:zoom="3.1466667"
   inkscape:cx="3.6305"
   inkscape:cy="4.007"
   inkscape:window-x="0"
   inkscape:window-y="0"
   inkscape:window-maximized="0"
   inkscape:current-layer="Layer_1" />
<path
   style="fill:#444444"
   d="m 26.902,23.36875 c 5.132,0 9.29,-4.164 9.29,-9.299 0,-5.135 -4.158,-9.298 -9.29,-9.298 -5.131,0 -9.29,4.163 -9.29,9.298 0,5.134 4.16,9.299 9.29,9.299 z m -15.111,14.846 v -32.916 c 0,-7.065 -11.791,-7.065 -11.791,0 l 0.008,56.349 h 11.767 v -11.751 h 76.471 l 0.008,11.785 h 11.744 v -23.498 l -11.929,0.031 H 11.791 l 0,0 z m 81.657,-26.656 H 43.993 v 0.016 c -2.876,0.114 -5.697,2.128 -5.697,5.948 v 7.413 H 20.979 c -6.916,0 -7.302,9.959 -0.146,9.959 h 23.951 c 0.03,0 0.057,-0.01 0.084,-0.013 H 100 v -17.367 c 0.002,-3.085 -1.673,-5.956 -6.552,-5.956 z"
   id="path3"
   inkscape:connector-curvature="0" />
</svg>