<svg xmlns="http://www.w3.org/2000/svg" xmlns:xlink="http://www.w3.org/1999/xlink" version="1.1" id="Layer_1" x="0px" y="0px" width="100px" height="75.0px" viewBox="0 0 800 600" enable-background="new 0 0 800 600" xml:space="preserve">
<path style="fill: #ff0000;" d="M397.858,293.743c5.132,0,9.29-4.164,9.29-9.299c0-5.135-4.158-9.298-9.29-9.298c-5.131,0-9.29,4.163-9.29,9.298  C388.568,289.578,392.728,293.743,397.858,293.743z M382.747,308.589v-32.916c0-7.065-11.791-7.065-11.791,0l0.008,56.349h11.767  v-11.751h76.471l0.008,11.785h11.744v-23.498l-11.929,0.031H382.747L382.747,308.589z M464.404,281.933h-49.455v0.016  c-2.876,0.114-5.697,2.128-5.697,5.948v7.413h-17.317c-6.916,0-7.302,9.959-0.146,9.959h23.951c0.03,0,0.057-0.01,0.084-0.013  h55.132v-17.367C470.958,284.804,469.283,281.933,464.404,281.933z"/>
</svg>
